<svg width="160" height="38" viewBox="0 0 160 38" fill="none" xmlns="http://www.w3.org/2000/svg">
<path d="M7.14258 9.80859C7.14258 10.5703 8.47266 10.9512 11.1328 10.9512C11.7891 10.9512 12.2754 10.8809 12.5918 10.7402C13.4238 10.3418 14.4434 10.1426 15.6504 10.1426C16.8691 10.1426 17.4785 10.4531 17.4785 11.0742C17.4785 11.3203 17.373 11.6836 17.1621 12.1641C16.9629 12.6328 16.8105 12.9199 16.7051 13.0254C16.6113 13.1309 16.2363 13.2773 15.5801 13.4648C14.9238 13.6406 14.4961 13.7402 14.2969 13.7637C14.1094 13.7754 13.9805 13.7871 13.9102 13.7988C13.8516 13.8105 13.7754 13.8223 13.6816 13.834C13.5996 13.8457 13.4062 13.8809 13.1016 13.9395C12.7969 13.9863 12.5742 13.9805 12.4336 13.9219C8.55469 15.832 5.88867 17.9297 4.43555 20.2148C3.7793 21.2461 3.45117 22.1309 3.45117 22.8691C3.45117 24.0293 4.25391 24.6094 5.85938 24.6094C7.11328 24.6094 8.70703 24.1172 10.6406 23.1328C12.5742 22.1484 14.2852 20.959 15.7734 19.5645C17.2734 18.1582 18.0234 16.9395 18.0234 15.9082C18.0234 15.5801 18.2695 15.416 18.7617 15.416C19.8984 15.416 20.4668 16.0898 20.4668 17.4375C20.4668 18.0703 20.1914 18.8262 19.6406 19.7051C19.0898 20.5723 18.3223 21.457 17.3379 22.3594C16.3535 23.25 15.2578 24.082 14.0508 24.8555C12.8438 25.6289 11.502 26.2617 10.0254 26.7539C8.56055 27.2461 7.31836 27.4922 6.29883 27.4922C5.2793 27.4922 4.45312 27.3926 3.82031 27.1934C3.19922 27.0059 2.61328 26.7188 2.0625 26.332C0.867188 25.5 0.269531 24.2402 0.269531 22.5527C0.269531 21.6387 0.515625 20.7129 1.00781 19.7754C1.5 18.8262 2.14453 17.9648 2.94141 17.1914C4.40625 15.7383 5.97656 14.5312 7.65234 13.5703C5.23828 13.0195 4.03125 11.7773 4.03125 9.84375C4.03125 7.66406 5.70703 5.67188 9.05859 3.86719C10.9219 2.87109 12.9434 2.15625 15.123 1.72266C16.1543 1.51172 17.0156 1.40625 17.707 1.40625C19.1133 1.40625 20.1738 1.51758 20.8887 1.74023C21.3223 1.95117 21.6738 2.25 21.9434 2.63672C22.2129 3.01172 22.3477 3.33984 22.3477 3.62109C22.3477 3.89062 22.3125 4.13672 22.2422 4.35938C22.1719 4.58203 22.0547 4.75781 21.8906 4.88672C21.6562 5.0625 21.3926 5.19727 21.0996 5.29102C20.8066 5.38477 20.6367 5.44336 20.5898 5.4668C19.6758 5.85352 18.8906 6.04688 18.2344 6.04688C17.0625 6.04688 16.4238 5.89453 16.3184 5.58984C16.3418 5.28516 16.4707 4.93359 16.7051 4.53516C15.5918 4.58203 14.4375 4.81055 13.2422 5.2207C12.0469 5.61914 11.0098 6.09375 10.1309 6.64453C9.26367 7.18359 8.54883 7.74609 7.98633 8.33203C7.42383 8.91797 7.14258 9.41016 7.14258 9.80859ZM31.1719 23.0977C31.7812 22.7109 32.1738 22.4473 32.3496 22.3066C32.5254 22.1543 32.7305 21.9785 32.9648 21.7793C33.1992 21.5801 33.3926 21.4805 33.5449 21.4805C33.7793 21.4805 33.8965 21.75 33.8965 22.2891C33.8965 22.8164 33.6328 23.3906 33.1055 24.0117C32.5898 24.6211 31.9453 25.1426 31.1719 25.5762C30.3984 25.998 29.5723 26.3672 28.6934 26.6836C26.9473 27.3281 25.459 27.6504 24.2285 27.6504C23.0098 27.6504 21.9082 27.252 20.9238 26.4551C19.9395 25.6465 19.4473 24.5977 19.4473 23.3086C19.4473 22.0078 19.7695 20.7129 20.4141 19.4238C21.0586 18.123 21.8848 16.9863 22.8926 16.0137C23.9121 15.0293 25.0898 14.2324 26.4258 13.623C27.7734 13.0137 29.1035 12.709 30.416 12.709C31.0488 12.709 31.6172 12.8906 32.1211 13.2539C32.625 13.6172 32.877 14.1152 32.877 14.748C32.877 15.3809 32.5605 16.1426 31.9277 17.0332C31.3066 17.9121 30.6738 18.3516 30.0293 18.3516C29.2793 18.3516 28.9043 17.9941 28.9043 17.2793C28.9043 17.0918 29.0801 16.7578 29.4316 16.2773C29.7832 15.7969 29.959 15.4746 29.959 15.3105C29.959 15.1348 29.8945 15.0469 29.7656 15.0469C29.1211 15.0469 28.4297 15.2695 27.6914 15.7148C26.9531 16.1602 26.2793 16.6289 25.6699 17.1211C25.0723 17.6133 24.5039 18.1641 23.9648 18.7734C22.793 20.0977 22.207 21.4746 22.207 22.9043C22.207 23.4785 22.3887 23.9766 22.752 24.3984C23.127 24.8086 23.748 25.0137 24.6152 25.0137C25.4941 25.0137 26.373 24.9141 27.252 24.7148C28.1309 24.5039 28.8516 24.2812 29.4141 24.0469C29.9883 23.8008 30.5742 23.4844 31.1719 23.0977ZM44.8301 13.6055C45.1816 13.6055 45.5391 13.7637 45.9023 14.0801C46.2773 14.3965 46.4648 14.8828 46.4648 15.5391C46.4648 16.1836 46.2363 17.0273 45.7793 18.0703C45.3223 19.1016 44.6953 20.1562 43.8984 21.2344C43.1016 22.3008 42.2227 23.3086 41.2617 24.2578C40.3125 25.1953 39.2812 25.9688 38.168 26.5781C37.0664 27.1758 36.0645 27.4746 35.1621 27.4746C34.2598 27.4746 33.5332 27.1934 32.9824 26.6309C32.4434 26.0566 32.1738 25.2656 32.1738 24.2578C32.1738 23.2383 32.4199 22.1133 32.9121 20.8828C33.416 19.6523 34.0605 18.5684 34.8457 17.6309C35.6309 16.6816 36.4805 15.832 37.3945 15.082C39.3047 13.5469 40.9805 12.7793 42.4219 12.7793C43.0664 12.7793 43.5527 12.9375 43.8809 13.2539C43.998 13.3594 44.0566 13.4531 44.0566 13.5352V13.6406C44.2207 13.6172 44.4785 13.6055 44.8301 13.6055ZM43.0547 15.9434H42.9316C42.5215 15.9434 42.3164 15.6445 42.3164 15.0469C41.4609 15.3281 40.5645 15.8203 39.627 16.5234C38.6895 17.2266 37.8516 18.0586 37.1133 19.0195C35.6133 20.9414 34.8516 22.5645 34.8281 23.8887C34.8281 24.5449 35.0684 24.873 35.5488 24.873C36.0293 24.873 36.7441 24.5566 37.6934 23.9238C38.6426 23.291 39.5801 22.3887 40.5059 21.2168C41.4434 20.0449 42.1406 19.0312 42.5977 18.1758C43.0664 17.3086 43.3008 16.7227 43.3008 16.418C43.3008 16.1016 43.2188 15.9434 43.0547 15.9434ZM59.2969 17.3848C58.9688 17.3848 58.8047 17.1797 58.8047 16.7695C58.8047 16.4648 58.9395 16.1309 59.209 15.7676C59.4902 15.4043 59.6602 15.1641 59.7188 15.0469C59.7773 14.9297 59.9297 14.748 60.1758 14.502C60.4336 14.2559 60.6562 14.1094 60.8438 14.0625C61.043 14.0156 61.4414 13.9629 62.0391 13.9043C63.8672 13.7285 65.8594 13.6289 68.0156 13.6055C70.3594 10.0547 72.2695 7.41797 73.7461 5.69531C71.5547 6.09375 68.8652 6.29297 65.6777 6.29297C61.3535 6.29297 59.1914 5.32617 59.1914 3.39258C59.1914 2.8418 59.4668 2.36133 60.0176 1.95117C60.5801 1.54102 61.2832 1.33594 62.127 1.33594C62.9824 1.33594 63.4102 1.43555 63.4102 1.63477C63.4102 1.74023 63.2754 1.79297 63.0059 1.79297C62.748 1.79297 62.502 1.89258 62.2676 2.0918C62.0449 2.2793 61.9336 2.46094 61.9336 2.63672C61.9336 2.90625 62.5078 3.10547 63.6562 3.23438C64.8047 3.36328 66.5742 3.42773 68.9648 3.42773C71.3672 3.42773 73.9688 3.21094 76.7695 2.77734C77.6953 2.01563 78.5625 1.44141 79.3711 1.05469C80.1914 0.667969 81.0234 0.474609 81.8672 0.474609C82.7109 0.474609 83.2617 0.662109 83.5195 1.03711C83.7773 1.41211 83.9062 1.69336 83.9062 1.88086C83.918 2.06836 83.7832 2.31445 83.502 2.61914C83.2207 2.92383 82.8281 3.23438 82.3242 3.55078C81.1406 4.27734 79.5879 4.71094 77.666 4.85156C75.6152 7.44141 73.5 10.3711 71.3203 13.6406C72.2227 13.6758 73.0664 13.7461 73.8516 13.8516C74.6367 13.9453 75.0293 14.25 75.0293 14.7656C75.0293 14.9766 74.6953 15.3809 74.0273 15.9785C73.957 16.0605 73.8691 16.1836 73.7637 16.3477C73.5762 16.6289 73.3887 16.7695 73.2012 16.7695C73.0254 16.7695 72.8203 16.7461 72.5859 16.6992C71.6719 16.6641 70.9863 16.6465 70.5293 16.6465L69.3867 16.6641C65.2617 23.0859 63.1289 26.4258 62.9883 26.6836C62.8594 26.9297 62.7129 27.1172 62.5488 27.2461C62.3965 27.375 62.2031 27.4395 61.9688 27.4395C61.7344 27.4395 61.4062 27.3984 60.9844 27.3164C60.5625 27.2461 60.2461 27.1523 60.0352 27.0352C59.8242 26.9297 59.7188 26.7949 59.7188 26.6309C59.7188 26.4551 59.7715 26.209 59.877 25.8926C60.1582 25.1074 62.127 22.0781 65.7832 16.8047C63.4043 16.9219 61.5176 17.0449 60.123 17.1738L59.2969 17.3848ZM81.6211 1.51172C81.4336 1.57031 81.2051 1.66406 80.9355 1.79297L81.6211 1.51172ZM80.2324 17.4199C82.998 14.2793 85.3535 12.709 87.2988 12.709C87.7793 12.709 88.1719 12.8555 88.4766 13.1484C88.793 13.4297 88.9512 13.7988 88.9512 14.2559C88.9512 14.7129 88.623 15.4805 87.9668 16.5586C87.3223 17.625 86.7246 18.5273 86.1738 19.2656C85.8809 19.6406 85.5469 19.8281 85.1719 19.8281C84.8086 19.8281 84.5215 19.6934 84.3105 19.4238C84.1113 19.1543 84.0117 18.8379 84.0117 18.4746C84.0117 17.666 84.4453 16.752 85.3125 15.7324L85.2773 15.6973C84.8906 15.7324 83.9297 16.4941 82.3945 17.9824C80.8711 19.4707 79.5703 20.8066 78.4922 21.9902C77.4258 23.1621 76.2656 24.5918 75.0117 26.2793C74.6484 26.7832 74.3379 27.0352 74.0801 27.0352C73.834 27.0352 73.5059 26.959 73.0957 26.8066C72.6738 26.6426 72.4219 26.5254 72.3398 26.4551C72.2461 26.3848 72.1992 26.2676 72.1992 26.1035C72.1992 25.9395 72.2461 25.752 72.3398 25.541C72.4336 25.3184 72.6094 25.0078 72.8672 24.6094C73.1133 24.2109 73.4883 23.5664 73.9922 22.6758C74.5078 21.7852 75.3047 20.4375 76.3828 18.6328C77.4609 16.8281 78.1055 15.7383 78.3164 15.3633C78.7617 14.5898 79.125 14.0273 79.4062 13.6758C79.9336 13.0078 80.8242 12.6738 82.0781 12.6738C82.3594 12.6738 82.5 12.8496 82.5 13.2012C82.5 13.752 81.9902 14.7891 80.9707 16.3125L80.2324 17.4199ZM98.5137 7.69922C98.5137 8.36719 98.2031 9.04102 97.582 9.7207C96.9609 10.3887 96.3105 10.7227 95.6309 10.7227C94.9629 10.7227 94.6289 10.3711 94.6289 9.66797C94.6289 8.96484 94.9219 8.29688 95.5078 7.66406C96.1055 7.01953 96.7617 6.69727 97.4766 6.69727C97.793 6.69727 98.0449 6.78516 98.2324 6.96094C98.4199 7.13672 98.5137 7.38281 98.5137 7.69922ZM95.666 23.0449C95.666 23.3965 95.6309 23.6484 95.5605 23.8008C94.9863 24.9727 94.0723 25.9219 92.8184 26.6484C91.5645 27.3633 90.4746 27.7207 89.5488 27.7207C88.623 27.7207 87.8262 27.4102 87.1582 26.7891C86.4902 26.168 86.1562 25.5352 86.1562 24.8906C86.1562 24.2461 86.4785 23.3086 87.123 22.0781C87.7676 20.8477 88.4121 19.7109 89.0566 18.668C89.7012 17.625 90.0234 17.0625 90.0234 16.9805C90.0234 16.8867 89.9004 16.7109 89.6543 16.4531C89.4199 16.1953 89.3027 16.0078 89.3027 15.8906C89.3027 15.7617 89.543 15.4395 90.0234 14.9238C90.5156 14.3965 91.1074 13.8809 91.7988 13.377C92.502 12.8613 93.0352 12.6035 93.3984 12.6035C93.7734 12.6035 94.1074 12.7676 94.4004 13.0957C94.6934 13.4238 94.8398 13.7227 94.8398 13.9922C94.8398 14.2617 93.4453 16.7988 90.6562 21.6035C90.6211 21.6738 90.5215 21.832 90.3574 22.0781C90.2051 22.3125 90.082 22.5117 89.9883 22.6758C89.9062 22.8281 89.8066 23.0156 89.6895 23.2383C89.4551 23.707 89.3379 24.0996 89.3379 24.416C89.3379 24.8145 89.6074 25.0137 90.1465 25.0137C90.6855 25.0137 91.2422 24.832 91.8164 24.4688C92.4023 24.0938 92.9062 23.6836 93.3281 23.2383C94.4297 22.0547 95.0566 21.4629 95.209 21.4629C95.5137 21.4629 95.666 21.9902 95.666 23.0449ZM106.477 13.8516C106.477 14.625 106.16 15.3047 105.527 15.8906C104.906 16.4766 104.197 16.7695 103.4 16.7695C103.143 16.7695 102.973 16.7109 102.891 16.5938C102.809 16.4648 102.768 16.3008 102.768 16.1016C102.768 15.9023 102.791 15.709 102.838 15.5215C102.416 15.6621 101.947 15.8789 101.432 16.1719C100.916 16.4648 100.283 16.8984 99.5332 17.4727C98.7832 18.0469 98.4082 18.4746 98.4082 18.7559C98.4082 18.8496 98.543 18.8965 98.8125 18.8965C99.0938 18.8965 99.5215 18.8027 100.096 18.6152C100.67 18.416 101.068 18.3164 101.291 18.3164C101.525 18.3164 101.678 18.3281 101.748 18.3516C101.9 18.4336 102.064 18.6152 102.24 18.8965C102.416 19.166 102.504 19.3828 102.504 19.5469C102.504 19.6992 102.352 19.9043 102.047 20.1621C101.742 20.4199 101.396 20.6191 101.01 20.7598C100.623 20.8887 100.365 20.9883 100.236 21.0586C97.7637 22.4414 96.5273 23.3906 96.5273 23.9062C96.5273 24.8203 97.3066 25.2773 98.8652 25.2773C99.8613 25.2773 100.863 24.9609 101.871 24.3281C102.727 23.7891 103.494 23.2441 104.174 22.6934C104.865 22.1309 105.299 21.7852 105.475 21.6562C105.662 21.5273 105.803 21.4629 105.896 21.4629C106.201 21.4629 106.354 21.8027 106.354 22.4824C106.354 23.1621 106.312 23.6133 106.23 23.8359C106.148 24.0469 105.914 24.3105 105.527 24.627C103.02 26.666 100.646 27.6855 98.4082 27.6855C97.2129 27.6855 96.2578 27.5215 95.543 27.1934C94.2305 26.5957 93.5742 25.6816 93.5742 24.4512C93.5742 22.834 94.6934 21.6094 96.9316 20.7773C96.4863 20.5781 96.1992 20.3262 96.0703 20.0215C95.9414 19.7051 95.877 19.207 95.877 18.5273C95.877 17.8359 96.1934 17.1094 96.8262 16.3477C97.4707 15.5742 98.2559 14.9414 99.1816 14.4492C101.244 13.3359 103.084 12.7793 104.701 12.7793C105.088 12.7793 105.48 12.873 105.879 13.0605C106.277 13.248 106.477 13.5117 106.477 13.8516ZM114.984 24.293C114.984 24.8086 115.336 25.0664 116.039 25.0664C116.414 25.0664 116.883 24.8789 117.445 24.5039C118.02 24.1289 118.535 23.7188 118.992 23.2734C120.211 22.0664 120.902 21.4629 121.066 21.4629C121.371 21.4629 121.523 21.9023 121.523 22.7812C121.523 23.6602 121.248 24.2637 120.697 24.5918C119.021 26.1035 117.727 27.0234 116.812 27.3516C116.297 27.5273 115.729 27.6094 115.107 27.5977C114.486 27.5859 113.871 27.3164 113.262 26.7891C112.652 26.2617 112.348 25.623 112.348 24.873C112.348 24.1113 112.547 23.25 112.945 22.2891C113.344 21.3281 113.748 20.5078 114.158 19.8281C114.58 19.1367 115.096 18.3398 115.705 17.4375C116.314 16.5234 116.637 15.9551 116.672 15.7324L116.637 15.6973C116.25 15.7324 115.289 16.4941 113.754 17.9824C112.23 19.4707 110.971 20.7656 109.975 21.8672C108.979 22.9688 107.789 24.4395 106.406 26.2793C106.02 26.7832 105.703 27.0352 105.457 27.0352C105.211 27.0352 104.883 26.959 104.473 26.8066C104.051 26.6426 103.793 26.5254 103.699 26.4551C103.605 26.3848 103.559 26.2793 103.559 26.1387C103.559 25.998 103.6 25.8281 103.682 25.6289C103.764 25.418 103.846 25.248 103.928 25.1191C103.998 24.9785 104.121 24.7676 104.297 24.4863C104.473 24.2051 104.818 23.6133 105.334 22.7109C105.861 21.7969 106.664 20.4375 107.742 18.6328C108.82 16.8281 109.465 15.7383 109.676 15.3633C110.121 14.5898 110.484 14.0273 110.766 13.6758C111.293 13.0078 112.184 12.6738 113.438 12.6738C113.719 12.6738 113.859 12.8496 113.859 13.2012C113.859 13.752 113.35 14.7891 112.33 16.3125L111.592 17.4199C113.619 15.1699 115.33 13.7461 116.725 13.1484C117.404 12.8555 118.014 12.709 118.553 12.709C119.104 12.709 119.537 12.8555 119.854 13.1484C120.182 13.4414 120.346 13.7695 120.346 14.1328C120.346 14.4844 120.223 14.9121 119.977 15.416C119.73 15.9082 119.479 16.3535 119.221 16.752C118.975 17.1387 118.646 17.6309 118.236 18.2285C117.826 18.8262 117.604 19.1543 117.568 19.2129C117.533 19.2598 117.439 19.4004 117.287 19.6348C117.146 19.8574 117.041 20.0215 116.971 20.127C116.9 20.2324 116.783 20.4199 116.619 20.6895C116.455 20.9473 116.32 21.1641 116.215 21.3398C116.121 21.5156 115.998 21.7324 115.846 21.9902C115.705 22.248 115.588 22.4707 115.494 22.6582C115.412 22.8457 115.324 23.0508 115.23 23.2734C115.066 23.6836 114.984 24.0234 114.984 24.293ZM141.949 0.650391C142.172 0.650391 142.348 0.720703 142.477 0.861328C142.605 1.00195 142.67 1.14844 142.67 1.30078C142.67 1.44141 142.553 1.71094 142.318 2.10938C142.096 2.49609 141.574 3.35156 140.754 4.67578C139.934 5.98828 139.295 7.01953 138.838 7.76953C136.178 12.0938 134.092 15.75 132.58 18.7383C131.068 21.7266 130.312 23.5312 130.312 24.1523V24.293C130.312 24.7734 130.488 25.0137 130.84 25.0137C131.191 25.0137 131.613 24.8496 132.105 24.5215C132.609 24.1934 133.049 23.8418 133.424 23.4668C133.799 23.0918 134.174 22.7051 134.549 22.3066C134.936 21.8965 135.17 21.6562 135.252 21.5859C135.334 21.5156 135.439 21.4805 135.568 21.4805C135.768 21.4805 135.896 21.6094 135.955 21.8672C136.014 22.1133 136.043 22.4648 136.043 22.9219C136.043 23.3672 136.008 23.6602 135.938 23.8008C135.598 24.457 134.848 25.2598 133.688 26.209C132.539 27.1465 131.449 27.6152 130.418 27.6152C128.66 27.6152 127.781 26.8711 127.781 25.3828C127.781 24.457 128.133 23.2441 128.836 21.7441C127.887 22.9746 126.92 24.0234 125.936 24.8906C124.107 26.4844 122.52 27.2812 121.172 27.2812C120.422 27.2812 119.865 27.0176 119.502 26.4902C119.15 25.9629 118.975 25.207 118.975 24.2227C118.975 23.2266 119.361 22.0371 120.135 20.6543C120.908 19.2715 121.869 18.0293 123.018 16.9277C124.178 15.8145 125.461 14.8887 126.867 14.1504C128.273 13.4004 129.568 13.0254 130.752 13.0254C131.127 13.0254 131.566 13.2539 132.07 13.7109C132.41 13.1719 133.037 12.0938 133.951 10.4766C136.822 5.63672 138.721 2.68359 139.646 1.61719C140.139 0.972656 140.906 0.650391 141.949 0.650391ZM130.998 15.3633C129.311 15.7383 127.74 16.5234 126.287 17.7188C124.834 18.9141 123.744 20.168 123.018 21.4805C122.291 22.7812 121.928 23.625 121.928 24.0117C121.928 24.3984 122.01 24.5918 122.174 24.5918C122.877 24.5918 124.617 23.0215 127.395 19.8809C128.777 18.334 129.979 16.8281 130.998 15.3633ZM149.279 0.615234C149.842 0.615234 150.334 0.785156 150.756 1.125C151.189 1.45313 151.406 1.94531 151.406 2.60156C151.406 3.25781 151.043 4.28906 150.316 5.69531C149.59 7.08984 148.717 8.51953 147.697 9.98438C146.678 11.4375 145.523 12.9844 144.234 14.625C142.195 17.2266 140.238 19.5645 138.363 21.6387C138.352 21.7793 138.299 22.043 138.205 22.4297C138.123 22.8047 138.082 23.1855 138.082 23.5723C138.082 23.959 138.258 24.3105 138.609 24.627C138.973 24.9316 139.418 25.084 139.945 25.084C140.473 25.084 141.035 24.8965 141.633 24.5215C142.242 24.1465 142.77 23.7305 143.215 23.2734C144.387 22.0664 145.113 21.4629 145.395 21.4629C145.676 21.4629 145.816 21.8906 145.816 22.7461V23.0977C145.816 23.5547 145.734 23.8887 145.57 24.0996C144.586 25.3066 143.479 26.209 142.248 26.8066C141.018 27.3926 139.852 27.6855 138.75 27.6855C137.648 27.6855 136.811 27.3516 136.236 26.6836C135.662 26.0039 135.375 25.0781 135.375 23.9062C135.375 21.6211 135.984 18.9375 137.203 15.8555C138.434 12.7617 139.816 10.1309 141.352 7.96289C144.809 3.06445 147.451 0.615234 149.279 0.615234ZM148.488 3.5332C148.488 3.35742 148.43 3.26953 148.312 3.26953C147.902 3.26953 146.824 4.44141 145.078 6.78516C143.332 9.12891 142.066 10.998 141.281 12.3926C140.508 13.7871 139.775 15.5391 139.084 17.6484C140.467 16.0078 142.377 13.4531 144.814 9.98438C147.264 6.50391 148.488 4.35352 148.488 3.5332ZM149.314 32.8359C149.256 32.8945 149.074 33.1875 148.77 33.7148C148.477 34.2539 148.16 34.793 147.82 35.332C147.48 35.8828 147.059 36.4043 146.555 36.8965C146.062 37.3887 145.646 37.6523 145.307 37.6875C144.979 37.7344 144.768 37.7578 144.674 37.7578C143.596 37.7578 143.057 37.2129 143.057 36.123C143.057 34.8457 143.719 33.3516 145.043 31.6406C145.547 30.9961 146.18 30.2988 146.941 29.5488C147.703 28.8105 148.119 28.3887 148.189 28.2832C148.26 28.1895 149.139 26.5488 150.826 23.3613C149.701 24.5918 148.658 25.5938 147.697 26.3672C146.736 27.1289 145.811 27.5566 144.92 27.6504H144.797C144.34 27.6504 143.889 27.498 143.443 27.1934C142.998 26.9004 142.775 26.3789 142.775 25.6289C142.775 24.5156 143.074 23.4375 143.672 22.3945C143.883 22.0312 144.246 21.416 144.762 20.5488C145.289 19.6816 145.775 18.8438 146.221 18.0352C146.643 17.3906 147.076 16.6406 147.521 15.7852C147.967 14.9297 148.307 14.3203 148.541 13.957C148.775 13.582 148.998 13.3945 149.209 13.3945C149.42 13.3945 149.689 13.5293 150.018 13.7988C150.357 14.0566 150.527 14.3672 150.527 14.7305C150.527 15.0938 149.76 16.6699 148.225 19.459C146.689 22.248 145.922 23.8359 145.922 24.2227C145.922 24.3164 145.969 24.3633 146.062 24.3633C146.379 24.3633 147.076 23.918 148.154 23.0273C149.244 22.125 150.445 20.9707 151.758 19.5645C153.223 18.0059 154.371 16.582 155.203 15.293C155.309 15.1289 155.391 15.0059 155.449 14.9238C155.52 14.8301 155.602 14.7129 155.695 14.5723C155.801 14.4199 155.883 14.3027 155.941 14.2207C156.012 14.1387 156.088 14.0449 156.17 13.9395C156.264 13.8223 156.346 13.7344 156.416 13.6758C156.486 13.6172 156.562 13.5586 156.645 13.5C156.773 13.3828 156.914 13.3242 157.066 13.3242C157.23 13.3242 157.471 13.3594 157.787 13.4297C158.115 13.5 158.309 13.5762 158.367 13.6582C158.438 13.7402 158.508 13.8164 158.578 13.8867C158.695 14.0156 158.754 14.1387 158.754 14.2559C158.754 14.3613 158.707 14.5078 158.613 14.6953C158.52 14.8711 157.975 15.7969 156.979 17.4727C154.049 22.418 152.033 26.0273 150.932 28.3008C152.713 26.8008 155.221 24.5801 158.455 21.6387C158.584 21.5332 158.713 21.4805 158.842 21.4805C159.205 21.4805 159.387 22.0371 159.387 23.1504C159.387 23.4785 159.328 23.6953 159.211 23.8008C155.707 26.4961 152.408 29.5078 149.314 32.8359Z" fill="#7EB693"/>
</svg>
